<?xml version="1.0" encoding="utf-8"?>
<svg xmlns="http://www.w3.org/2000/svg" viewBox="10.199 15.29 222.132 49.219" width="222.132px" height="49.219px"><path id="path2" d="M 230.891 38.473 C 220.385 38.473 211.825 28.712 211.825 16.718 C 211.825 15.928 211.185 15.29 210.398 15.29 C 209.611 15.29 208.971 15.928 208.971 16.718 C 208.971 26.488 203.291 34.755 195.492 37.488 C 193.678 38.127 191.665 38.127 189.838 37.488 C 182.052 34.755 176.358 26.488 176.358 16.718 C 176.358 15.928 175.718 15.29 174.932 15.29 C 174.145 15.29 173.505 15.928 173.505 16.718 C 173.505 27.714 166.305 36.809 157.012 38.25 C 147.705 36.809 140.505 27.714 140.505 16.718 C 140.505 15.928 139.865 15.29 139.078 15.29 C 138.292 15.29 137.652 15.928 137.652 16.718 C 137.652 26.488 131.972 34.755 124.185 37.488 C 122.358 38.127 120.345 38.127 118.518 37.488 C 110.732 34.755 105.052 26.488 105.052 16.718 C 105.052 15.928 104.412 15.29 103.625 15.29 C 102.825 15.29 102.185 15.928 102.185 16.718 C 102.185 27.75 94.945 36.871 85.598 38.266 C 76.252 36.871 69.012 27.75 69.012 16.718 C 69.012 15.928 68.372 15.29 67.585 15.29 C 66.798 15.29 66.158 15.928 66.158 16.718 C 66.158 26.488 60.465 34.755 52.679 37.488 C 50.865 38.127 48.839 38.127 47.025 37.488 C 39.225 34.755 33.545 26.488 33.545 16.718 C 33.545 15.928 32.905 15.29 32.119 15.29 C 31.332 15.29 30.692 15.928 30.692 16.718 C 30.692 28.712 22.132 38.473 11.625 38.473 C 10.825 38.473 10.199 39.111 10.199 39.9 C 10.199 40.688 10.825 41.327 11.625 41.327 C 22.132 41.327 30.692 51.088 30.692 63.082 C 30.692 63.871 31.332 64.509 32.119 64.509 C 32.905 64.509 33.545 63.871 33.545 63.082 C 33.545 53.376 39.159 45.154 46.865 42.366 C 48.785 41.674 50.919 41.674 52.839 42.366 C 60.545 45.154 66.158 53.376 66.158 63.082 C 66.158 63.871 66.798 64.509 67.585 64.509 C 68.372 64.509 69.012 63.871 69.012 63.082 C 69.012 52.05 76.252 42.928 85.598 41.533 C 94.945 42.928 102.185 52.05 102.185 63.082 C 102.185 63.871 102.825 64.509 103.625 64.509 C 104.412 64.509 105.052 63.871 105.052 63.082 C 105.052 53.376 110.652 45.154 118.372 42.366 C 120.278 41.674 122.425 41.674 124.332 42.366 C 132.052 45.154 137.652 53.376 137.652 63.082 C 137.652 63.871 138.292 64.509 139.078 64.509 C 139.865 64.509 140.505 63.871 140.505 63.082 C 140.505 52.086 147.705 42.991 157.012 41.55 C 166.305 42.991 173.505 52.086 173.505 63.082 C 173.505 63.871 174.145 64.509 174.932 64.509 C 175.718 64.509 176.358 63.871 176.358 63.082 C 176.358 53.376 181.972 45.154 189.678 42.366 C 191.598 41.674 193.732 41.674 195.652 42.366 C 203.358 45.154 208.971 53.376 208.971 63.082 C 208.971 63.871 209.611 64.509 210.398 64.509 C 211.185 64.509 211.825 63.871 211.825 63.082 C 211.825 51.088 220.385 41.327 230.891 41.327 C 231.691 41.327 232.331 40.688 232.331 39.9 C 232.331 39.111 231.691 38.473 230.891 38.473" style="fill:#100f0d;fill-opacity:1;fill-rule:nonzero;stroke:none"/></svg>