<svg width="650.076" height="214.771" viewBox="0 0 650.076 214.771" xmlns="http://www.w3.org/2000/svg" xmlns:xlink="http://www.w3.org/1999/xlink">
    <defs>
        <path id="tbfj3w6zja" d="M0 0h21.825v32.256H0z"/>
        <path id="0boadvvolc" d="M0 0h18.821v42.326H0z"/>
        <path id="yff7fchwfe" d="M0 0h42.282v25.735H0z"/>
    </defs>
    <g fill="none" fill-rule="evenodd">
        <path d="M240.796 193.134v-1.004c0-.7.352-1.052 1.053-1.052h4.265c.7 0 1.052.352 1.052 1.052v.401c0 1.27.25 2.142.753 2.607.502.471 1.423.704 2.76.704h2.356c1.307 0 2.215-.25 2.735-.753.518-.502.778-1.438.778-2.809v-.602c0-.967-.395-1.71-1.178-2.23-.787-.52-1.766-.83-2.935-.93a31.287 31.287 0 0 1-3.788-.576 24.12 24.12 0 0 1-3.788-1.105c-1.172-.45-2.148-1.334-2.934-2.656s-1.178-3.02-1.178-5.094v-1.757c0-2.607.734-4.629 2.206-6.067 1.472-1.438 3.513-2.157 6.12-2.157h5.018c2.64 0 4.696.72 6.168 2.157 1.472 1.438 2.209 3.46 2.209 6.067v.955c0 .701-.352 1.053-1.055 1.053h-4.263c-.703 0-1.052-.352-1.052-1.053v-.3c0-1.303-.251-2.19-.756-2.659-.5-.468-1.42-.704-2.757-.704h-1.955c-1.374 0-2.301.261-2.784.778-.487.52-.73 1.53-.73 3.035v.955c0 1.572 1.372 2.475 4.114 2.707 2.842.233 5.367.802 7.576 1.705 1.169.502 2.148 1.398 2.934 2.686.786 1.285 1.178 2.931 1.178 4.942v1.704c0 2.607-.737 4.633-2.206 6.071-1.472 1.438-3.513 2.157-6.12 2.157h-5.467c-2.61 0-4.651-.719-6.12-2.157-1.475-1.438-2.21-3.464-2.21-6.07M275.558 184.706h5.319c1.07 0 1.82-.226 2.257-.676.431-.453.652-1.197.652-2.232v-4.215c0-1.069-.22-1.83-.651-2.284-.438-.448-1.188-.675-2.258-.675h-5.319c-.366 0-.55.184-.55.55v8.98c0 .368.184.552.55.552m-1.606 16.654h-4.262c-.704 0-1.053-.35-1.053-1.053V170.16c0-.704.35-1.056 1.053-1.056h12.238c2.608 0 4.634.712 6.072 2.135 1.438 1.42 2.156 3.434 2.156 6.043v4.816c0 2.607-.719 4.623-2.156 6.043-1.438 1.424-3.464 2.133-6.072 2.133h-6.32c-.401 0-.6.184-.6.552v9.482c0 .703-.352 1.052-1.055 1.052M302.145 184.356h4.917c1.068 0 1.854-.226 2.356-.679.502-.453.753-1.178.753-2.182v-3.913c0-1.035-.25-1.787-.753-2.255-.502-.469-1.288-.704-2.356-.704h-4.917c-.37 0-.554.183-.554.551v8.628c0 .37.184.554.554.554m-1.606 17.003h-4.263c-.703 0-1.052-.349-1.052-1.052V170.16c0-.704.35-1.053 1.052-1.053h11.937c2.613 0 4.65.72 6.122 2.154 1.472 1.441 2.206 3.464 2.206 6.071v3.913c0 3.78-1.487 6.288-4.464 7.527v.2l5.37 11.186c.297.801.012 1.202-.854 1.202h-4.066c-.6 0-1.034-.064-1.304-.199-.266-.134-.483-.419-.65-.853l-5.016-10.835h-3.363c-.4 0-.603.183-.603.551v10.284c0 .703-.349 1.052-1.052 1.052M329.284 170.16v30.147c0 .704-.352 1.052-1.056 1.052h-4.262c-.701 0-1.052-.348-1.052-1.052V170.16c0-.704.35-1.056 1.052-1.056h4.262c.704 0 1.056.352 1.056 1.056M341.273 201.361h-4.164c-.704 0-1.053-.352-1.053-1.056v-30.144c0-.704.35-1.056 1.053-1.056h3.763c.701 0 1.17.233 1.405.704l10.13 19.01h.202v-18.658c0-.704.352-1.056 1.053-1.056h4.164c.701 0 1.053.352 1.053 1.056v30.144c0 .704-.352 1.056-1.053 1.056h-3.662c-.738 0-1.273-.333-1.604-1.004l-10.036-18.661h-.198v18.609c0 .704-.352 1.056-1.053 1.056M378.493 201.361h-5.318c-2.644 0-4.68-.704-6.119-2.108-1.438-1.405-2.158-3.427-2.158-6.068v-15.904c0-2.641.72-4.666 2.158-6.068 1.438-1.404 3.475-2.108 6.12-2.108h5.317c2.607 0 4.63.713 6.071 2.133 1.435 1.422 2.157 3.436 2.157 6.043v1.508c0 .734-.352 1.102-1.056 1.102H381.4c-.7 0-1.053-.368-1.053-1.102v-1.205c0-1.071-.217-1.833-.65-2.283-.436-.453-1.189-.676-2.26-.676h-3.258c-1.038 0-1.78.223-2.234.676-.45.45-.676 1.212-.676 2.283v15.298c0 1.071.226 1.833.676 2.283.453.453 1.196.676 2.234.676h3.258c1.071 0 1.824-.223 2.26-.676.433-.45.65-1.212.65-2.283v-3.16c0-.368-.183-.551-.55-.551h-3.008c-.704 0-1.056-.352-1.056-1.053v-3.411c0-.701.352-1.053 1.056-1.053h8.775c.768 0 1.157.383 1.157 1.154v8.377c0 2.607-.722 4.624-2.157 6.043-1.442 1.423-3.464 2.133-6.07 2.133M411.65 195.793h2.108c1.405 0 2.206-.667 2.405-2.007l-5.468-6.423c-.801.037-1.364.303-1.68.805-.318.499-.474 1.352-.474 2.558v2.157c0 1.037.239 1.78.725 2.234.487.45 1.279.676 2.384.676m2.108 5.569h-3.063c-2.64 0-4.681-.704-6.12-2.108-1.437-1.405-2.156-3.412-2.156-6.02v-2.91c0-1.672.443-3.15 1.33-4.44.885-1.287 2.13-2.03 3.737-2.23-1.304-1.706-1.956-3.665-1.956-5.871v-.551c0-2.573.778-4.574 2.332-5.994 1.554-1.422 3.672-2.132 6.346-2.132h1.655c2.64 0 4.682.703 6.12 2.105 1.438 1.404 2.157 3.41 2.157 6.02v1.706c0 .737-.352 1.104-1.053 1.104h-4.265c-.701 0-1.052-.367-1.052-1.104v-1.604c0-1.037-.202-1.78-.603-2.233-.401-.45-1.034-.676-1.906-.676h-.401c-.97 0-1.674.226-2.108.676-.435.453-.65 1.196-.65 2.233v.652c0 1.304.735 2.794 2.207 4.464l2.356 2.708h11.137c.704 0 1.053.37 1.053 1.105v3.41c0 .702-.35 1.054-1.053 1.054h-6.523l8.179 9.733c.168.199.217.4.15.6-.068.202-.217.303-.453.303h-5.367c-.802 0-1.386-.236-1.753-.704l-2.21-2.607c-.366 1.172-1.027 2.013-1.982 2.53-.952.52-2.316.78-4.085.78M445.009 193.134v-1.004c0-.7.349-1.052 1.053-1.052h4.265c.7 0 1.052.352 1.052 1.052v.401c0 1.27.25 2.142.753 2.607.502.471 1.42.704 2.757.704h2.359c1.303 0 2.215-.25 2.735-.753.518-.502.778-1.438.778-2.809v-.602c0-.967-.395-1.71-1.178-2.23-.787-.52-1.766-.83-2.935-.93a31.33 31.33 0 0 1-3.791-.576 24.082 24.082 0 0 1-3.785-1.105c-1.172-.45-2.151-1.334-2.934-2.656-.786-1.322-1.178-3.02-1.178-5.094v-1.757c0-2.607.73-4.629 2.206-6.067 1.472-1.438 3.51-2.157 6.12-2.157h5.015c2.643 0 4.699.72 6.17 2.157 1.47 1.438 2.207 3.46 2.207 6.067v.955c0 .701-.352 1.053-1.052 1.053h-4.266c-.7 0-1.052-.352-1.052-1.053v-.3c0-1.303-.251-2.19-.753-2.659-.502-.468-1.42-.704-2.757-.704h-1.958c-1.371 0-2.298.261-2.784.778-.484.52-.73 1.53-.73 3.035v.955c0 1.572 1.375 2.475 4.117 2.707 2.842.233 5.367.802 7.573 1.705 1.172.502 2.148 1.398 2.934 2.686.786 1.285 1.18 2.931 1.18 4.942v1.704c0 2.607-.736 4.633-2.205 6.071-1.475 1.438-3.513 2.157-6.123 2.157h-5.467c-2.607 0-4.648-.719-6.12-2.157-1.472-1.438-2.206-3.464-2.206-6.07M482.831 201.361h-4.213c-.738 0-1.105-.352-1.105-1.056v-25.129c0-.368-.187-.551-.554-.551h-5.715c-.704 0-1.056-.352-1.056-1.056v-3.408c0-.704.352-1.056 1.056-1.056h18.961c.701 0 1.053.352 1.053 1.056v3.408c0 .704-.352 1.056-1.053 1.056h-5.722c-.4 0-.599.183-.599.551v25.129c0 .704-.352 1.056-1.053 1.056M505.704 175.175l-3.61 14.497h7.422l-3.61-14.497h-.202zm-7.273 26.185h-4.816c-.603 0-.805-.351-.603-1.052l7.928-30.148c.233-.704.734-1.056 1.505-1.056h6.671c.835 0 1.337.352 1.502 1.056l7.928 30.148c.202.7 0 1.052-.603 1.052h-4.816c-.367 0-.618-.073-.753-.223-.13-.153-.232-.428-.3-.83l-1.404-5.516h-9.782l-1.404 5.517c-.068.4-.175.676-.328.829-.15.15-.392.223-.725.223zM544.43 169.105h7.423c.704 0 1.053.352 1.053 1.056v30.144c0 .704-.35 1.056-1.053 1.056h-4.112c-.701 0-1.053-.352-1.053-1.056v-23.777h-.202l-5.116 16.807c-.202.67-.618 1.004-1.254 1.004h-4.213c-.637 0-1.053-.334-1.255-1.004l-5.217-16.856h-.2v23.826c0 .404-.07.68-.204.83-.131.15-.416.226-.85.226h-4.113c-.703 0-1.052-.352-1.052-1.056v-30.144c0-.704.349-1.056 1.052-1.056h7.472c.47 0 .787.233.955.704l5.318 17.707h.3l5.369-17.707c.098-.471.417-.704.952-.704M566.35 184.706h5.318c1.07 0 1.82-.226 2.258-.676.434-.453.652-1.197.652-2.232v-4.215c0-1.069-.218-1.83-.652-2.284-.438-.448-1.187-.675-2.258-.675h-5.318c-.367 0-.551.184-.551.55v8.98c0 .368.184.552.55.552m-1.602 16.654h-4.266c-.703 0-1.052-.35-1.052-1.053V170.16c0-.704.349-1.056 1.052-1.056h12.239c2.61 0 4.633.712 6.07 2.135 1.439 1.42 2.158 3.434 2.158 6.043v4.816c0 2.607-.72 4.623-2.157 6.043-1.438 1.424-3.461 2.133-6.071 2.133h-6.318c-.401 0-.603.184-.603.552v9.482c0 .703-.352 1.052-1.052 1.052M592.638 170.16v30.147c0 .704-.352 1.052-1.056 1.052h-4.262c-.7 0-1.052-.348-1.052-1.052V170.16c0-.704.351-1.056 1.052-1.056h4.262c.704 0 1.056.352 1.056 1.056M604.626 201.361h-4.164c-.704 0-1.053-.352-1.053-1.056v-30.144c0-.704.35-1.056 1.053-1.056h3.763c.701 0 1.17.233 1.405.704l10.13 19.01h.202v-18.658c0-.704.352-1.056 1.053-1.056h4.164c.701 0 1.053.352 1.053 1.056v30.144c0 .704-.352 1.056-1.053 1.056h-3.662c-.738 0-1.273-.333-1.604-1.004l-10.036-18.661h-.199v18.609c0 .704-.35 1.056-1.052 1.056" fill="#FFF"/>
        <g transform="translate(628.25 169.105)">
            <mask id="a4nv0litzb" fill="#fff">
                <use xlink:href="#tbfj3w6zja"/>
            </mask>
            <path d="M13.598 32.256H8.28c-2.643 0-4.681-.704-6.122-2.108C.723 28.743 0 26.721 0 24.08V8.176C0 5.535.723 3.51 2.158 2.108 3.599.704 5.637 0 8.28 0h5.318c2.607 0 4.633.713 6.071 2.133 1.435 1.422 2.157 3.436 2.157 6.043v1.508c0 .734-.352 1.102-1.056 1.102h-4.265c-.701 0-1.053-.368-1.053-1.102V8.479c0-1.071-.214-1.833-.651-2.283-.435-.453-1.188-.676-2.259-.676H9.284c-1.038 0-1.781.223-2.234.676-.45.45-.676 1.212-.676 2.283v15.298c0 1.071.226 1.833.676 2.283.453.453 1.196.676 2.234.676h3.258c1.071 0 1.824-.223 2.259-.676.437-.45.651-1.212.651-2.283v-3.16c0-.368-.183-.551-.551-.551h-3.007c-.704 0-1.056-.352-1.056-1.053v-3.411c0-.701.352-1.053 1.056-1.053h8.775c.768 0 1.157.383 1.157 1.154v8.377c0 2.607-.722 4.624-2.157 6.043-1.438 1.423-3.464 2.133-6.071 2.133" fill="#FFF" mask="url(#a4nv0litzb)"/>
        </g>
        <g transform="translate(97.637)">
            <mask id="c13yii3vvd" fill="#fff">
                <use xlink:href="#0boadvvolc"/>
            </mask>
            <path d="M18.821 42.326 9.476 0l-.067.196L9.345 0 0 42.326a64.228 64.228 0 0 1 9.409-.695c3.188 0 6.334.239 9.412.695" fill="#FFF" mask="url(#c13yii3vvd)"/>
        </g>
        <path d="M128.513 45.253a63.866 63.866 0 0 1 16.067 8.197l11.471-39.636-.153.128.021-.195-27.406 31.506zM154.294 61.797a64.081 64.081 0 0 1 10.431 14.246l27.58-29.533-.195.043.128-.15-37.944 15.394zM169.971 88.923a63.626 63.626 0 0 1 2.58 17.456l38.207-11.906-.175-.042.175-.086-40.787-5.422zM171.142 120.819a64.242 64.242 0 0 1-5.853 16.348l38.724 7.22-.15-.13h.193l-32.914-23.438zM157.07 149.418a63.836 63.836 0 0 1-12.99 11.774l30.553 25.261-.064-.195.15.107-17.65-36.947zM128.752 208.982l.02-.196.112.175 1.58-40.613a64.174 64.174 0 0 1-17 3.99l15.288 36.644zM125.564 44.299 144.32 6.483 118.713.847l1.105 42.04c1.952.372 3.883.849 5.746 1.412M152.104 59.607l34.5-24.567-19.929-17.064-18.974 37.815zM168.822 85.28l41.588-5.226-9.433-24.457-34.41 24.154zM172.465 110.8a64.153 64.153 0 0 1-.63 6.246l37.252 17.367 5.03-25.735-41.652 2.123zM159.607 146.275l26.28 31.418 15.46-21.183-38.163-15.547a63.22 63.22 0 0 1-3.577 5.312M134.867 166.461l8 41.068 23.766-11.079-26.476-32.764a53.206 53.206 0 0 1-5.29 2.775M107.047 172.663c-1.04 0-2.059-.021-3.078-.086L94.45 214.77h25.194l-9.497-42.194c-1.041.065-2.06.086-3.1.086M69.537 53.45a63.783 63.783 0 0 1 16.067-8.198L58.198 13.75l.021.192-.153-.128L69.537 53.45zM49.393 76.043a63.933 63.933 0 0 1 10.431-14.246L21.877 46.403l.131.15-.196-.043 27.581 29.533zM41.566 106.378a63.72 63.72 0 0 1 2.579-17.456L3.362 94.344l.17.086-.17.045 38.204 11.903zM48.83 137.167a63.952 63.952 0 0 1-5.853-16.347L10.06 144.256h.196l-.153.132 38.727-7.22zM70.036 161.192a63.941 63.941 0 0 1-12.99-11.774L39.4 186.365l.15-.107-.065.195 30.552-25.26zM83.653 168.348l1.582 40.612.11-.174.02.196 15.288-36.644a64.194 64.194 0 0 1-17-3.99M94.3 42.89 95.403.846 69.796 6.484l18.757 37.817a54.38 54.38 0 0 1 5.746-1.412M66.415 55.79 47.44 17.976 27.516 35.04l34.496 24.567zM47.55 79.75 13.14 55.598 3.707 80.054l41.588 5.226z" fill="#FFF"/>
        <g transform="translate(0 108.678)">
            <mask id="r63llb1xyf" fill="#fff">
                <use xlink:href="#yff7fchwfe"/>
            </mask>
            <path d="M41.653 2.123-.002 0l5.032 25.735L42.281 8.368a64.153 64.153 0 0 1-.63-6.245" fill="#FFF" mask="url(#r63llb1xyf)"/>
        </g>
        <path d="m50.933 140.962-38.16 15.547 15.457 21.185 26.28-31.42a63.383 63.383 0 0 1-3.577-5.312M47.485 196.449l23.765 11.079 8.001-41.068a52.769 52.769 0 0 1-5.29-2.775l-26.476 32.764zM300.262 149.391v-38.066h-12.055V79.127h12.055l-.159-9.357c-.159-4.758-3.17-8.883-7.93-9.2-5.074-.16-8.088 5.55-8.088 10.785v78.036h-39.81v-81.05c0-24.903 18.557-43.776 46.79-44.253 26.01-.475 48.848 16.813 48.848 45.997v79.306h-39.65zM409.864 113.068h-10.152v-34.26h3.014c4.758 0 8.723-3.807 8.723-8.564 0-4.44-3.488-8.724-8.087-8.724-4.602 0-7.931 4.284-7.931 8.724l-.159 79.146h-39.177l-.159-78.036c0-28.865 19.194-45.36 44.253-46.79 27.44-1.269 50.278 20.62 48.852 46.79-1.27 22.05-17.131 41.714-39.177 41.714M513.338 149.232c-31.88 0-56.624-28.073-57.416-60.112-.793-34.894 26.17-63.126 63.921-63.126h19.191v34.257h-18.398c-2.54 0-8.565 1.43-12.848 4.284-3.333 2.221-5.076 4.443-6.98 7.931h38.385v30.135H500.49c1.747 3.966 3.81 6.187 7.457 8.724 5.073 3.488 11.896 3.806 15.862 3.806h15.7v34.101h-26.17zM642.29 60.252c-13.8 0-23.793 16.495-22.364 30.136 1.27 13.163 11.737 24.744 25.06 24.744h4.602v34.26h-10.153c-5.868 0-20.619-1.114-30.294-8.408-3.807-2.696-6.028-5.076-8.883-8.883-3.014 4.44-6.502 7.931-9.834 9.994-3.806 2.218-13.322 7.297-28.389 7.297h-10.944v-34.26h5.868c17.447.156 22.682-11.896 23.949-24.744 1.429-13.64-8.564-30.136-22.364-30.136h-7.612v-34.26h15.543c7.931 0 13.166.792 20.302 4.44 6.027 3.173 9.675 6.186 13.64 12.055 3.966-5.869 7.454-8.882 13.8-12.055 6.979-3.648 12.211-4.44 20.142-4.44h15.544v34.26h-7.613z" fill="#FFF"/>
    </g>
</svg>
