<?xml version="1.0" encoding="UTF-8" standalone="no"?>
<!-- Created with Inkscape (http://www.inkscape.org/) -->

<svg
   version="1.1"
   id="svg1"
   width="1677.72"
   height="628.96002"
   viewBox="0 0 1677.72 628.96002"
   sodipodi:docname="Asset 7.eps"
   xmlns:inkscape="http://www.inkscape.org/namespaces/inkscape"
   xmlns:sodipodi="http://sodipodi.sourceforge.net/DTD/sodipodi-0.dtd"
   xmlns="http://www.w3.org/2000/svg"
   xmlns:svg="http://www.w3.org/2000/svg">
  <defs
     id="defs1" />
  <sodipodi:namedview
     id="namedview1"
     pagecolor="#ffffff"
     bordercolor="#000000"
     borderopacity="0.25"
     inkscape:showpageshadow="2"
     inkscape:pageopacity="0.0"
     inkscape:pagecheckerboard="0"
     inkscape:deskcolor="#d1d1d1">
    <inkscape:page
       x="0"
       y="0"
       inkscape:label="1"
       id="page1"
       width="1677.72"
       height="628.96002"
       margin="0"
       bleed="0" />
  </sodipodi:namedview>
  <g
     id="g1"
     inkscape:groupmode="layer"
     inkscape:label="1">
    <g
       id="group-R5">
      <path
         id="path2"
         d="m 12232,251.129 c -78.8,0 -143,73.203 -143,163.16 0,5.922 -4.8,10.711 -10.7,10.711 -5.9,0 -10.7,-4.789 -10.7,-10.711 0,-73.277 -42.6,-135.277 -101.1,-155.777 -13.6,-4.793 -28.7,-4.793 -42.4,0 -58.4,20.5 -101.1,82.5 -101.1,155.777 0,5.922 -4.8,10.711 -10.7,10.711 -5.9,0 -10.7,-4.789 -10.7,-10.711 0,-82.469 -54,-150.68 -123.7,-161.488 -69.8,10.808 -123.8,79.019 -123.8,161.488 0,5.922 -4.8,10.711 -10.7,10.711 -5.9,0 -10.7,-4.789 -10.7,-10.711 0,-73.277 -42.6,-135.277 -101,-155.777 -13.7,-4.793 -28.8,-4.793 -42.5,0 -58.4,20.5 -101,82.5 -101,155.777 0,5.922 -4.8,10.711 -10.7,10.711 -6,0 -10.8,-4.789 -10.8,-10.711 0,-82.738 -54.3,-151.148 -124.4,-161.609 -70.1,10.461 -124.4,78.871 -124.4,161.609 0,5.922 -4.8,10.711 -10.7,10.711 -5.9,0 -10.7,-4.789 -10.7,-10.711 0,-73.277 -42.7,-135.277 -101.1,-155.777 -13.6,-4.793 -28.8,-4.793 -42.4,0 -58.5,20.5 -101.1,82.5 -101.1,155.777 0,5.922 -4.8,10.711 -10.7,10.711 -5.9,0 -10.7,-4.789 -10.7,-10.711 0,-89.957 -64.2,-163.16 -143,-163.16 -6,0 -10.7,-4.789 -10.7,-10.707 0,-5.91 4.7,-10.703 10.7,-10.703 78.8,0 143,-73.207 143,-163.1604 0,-5.918 4.8,-10.707 10.7,-10.707 5.9,0 10.7,4.789 10.7,10.707 0,72.7934 42.1,134.4614 99.9,155.3714 14.4,5.191 30.4,5.191 44.8,0 57.8,-20.91 99.9,-82.578 99.9,-155.3714 0,-5.918 4.8,-10.707 10.7,-10.707 5.9,0 10.7,4.789 10.7,10.707 0,82.7424 54.3,151.1524 124.4,161.6134 70.1,-10.461 124.4,-78.871 124.4,-161.6134 0,-5.918 4.8,-10.707 10.8,-10.707 5.9,0 10.7,4.789 10.7,10.707 0,72.7934 42,134.4614 99.9,155.3714 14.3,5.191 30.4,5.191 44.7,0 57.9,-20.91 99.9,-82.578 99.9,-155.3714 0,-5.918 4.8,-10.707 10.7,-10.707 5.9,0 10.7,4.789 10.7,10.707 0,82.4724 54,150.6794 123.8,161.4924 69.7,-10.813 123.7,-79.02 123.7,-161.4924 0,-5.918 4.8,-10.707 10.7,-10.707 5.9,0 10.7,4.789 10.7,10.707 0,72.7934 42.1,134.4614 99.9,155.3714 14.4,5.191 30.4,5.191 44.8,0 57.8,-20.91 99.9,-82.578 99.9,-155.3714 0,-5.918 4.8,-10.707 10.7,-10.707 5.9,0 10.7,4.789 10.7,10.707 0,89.9534 64.2,163.1604 143,163.1604 6,0 10.8,4.793 10.8,10.703 0,5.918 -4.8,10.707 -10.8,10.707"
         style="fill:#ed1c24;fill-opacity:1;fill-rule:nonzero;stroke:none"
         transform="matrix(0.13333333,0,0,-0.13333333,0,628.96)" />
      <path
         id="path3"
         d="m 11606.5,4430.29 c 4.6,3.99 9.8,7.85 15.7,11.57 5.9,3.7 9.8,6.22 11.7,7.56 20.6,13.89 49.4,32.4 86.4,55.53 37,23.12 62.9,40.2 77.8,51.24 14.8,11.04 26.4,23.13 34.8,36.26 8.4,13.13 12.6,28.74 12.6,46.82 0,14.85 -1.9,28.08 -5.7,39.69 -4,12.56 -6.9,20.88 -8.6,24.98 -1.7,4.08 -4.6,7.33 -8.7,9.7 -4.1,2.38 -10.4,3.57 -19,3.57 -16.9,0 -35.6,-1.95 -56.1,-5.85 -20.4,-3.91 -38.9,-8.66 -55.4,-14.27 -16.4,-5.63 -28.6,-11.2 -36.4,-16.71 -6.6,-4.76 -12.9,-12.8 -18.9,-24.12 -6,-11.33 -10.8,-23.56 -14.3,-36.69 -3.5,-13.13 -5.3,-23.89 -5.3,-32.26 0,-9.33 3.7,-13.99 11.1,-13.99 1.5,0 9.7,1.66 24.6,5 14.8,3.32 25.5,5.56 32,6.71 4.3,0.75 8.1,1.38 11.4,1.85 3.2,0.47 5.5,1.14 7,2 1.4,0.85 2.1,2.42 2.1,4.71 0,5.14 -4.3,8.56 -12.8,10.28 -8.6,1.71 -22.9,3.04 -42.9,3.99 12.8,11.05 28.1,20.8 45.9,29.27 17.8,8.47 35.4,14.94 52.8,19.41 17.4,4.47 32.3,6.71 44.7,6.71 7.8,0 13.8,-1.47 18.1,-4.43 4.3,-2.94 6.4,-7.08 6.4,-12.41 0,-5.91 -3.9,-13.71 -11.8,-23.41 -7.9,-9.71 -18.8,-19.33 -32.7,-28.84 -3.8,-2.66 -36.8,-21.7 -98.8,-57.09 -20.4,-11.81 -39,-25.27 -56,-40.41 -16.9,-15.12 -30.2,-29.88 -39.9,-44.25 -9.7,-14.37 -14.6,-26.5 -14.6,-36.4 0,-5.71 2.1,-14.55 6.3,-26.55 4.2,-11.99 8.2,-19.69 12,-23.12 6.3,-5.9 18.7,-8.85 37.4,-8.85 71.9,0 120.5,11.71 145.6,35.12 5.1,4.75 9.6,10.41 13.4,16.98 3.8,6.56 6.7,13.04 8.7,19.41 2,6.38 3,11.76 3,16.14 0,4.75 -2.4,7.13 -7.1,7.13 -2.9,0 -11.4,-1.95 -25.6,-5.85 -14.2,-3.91 -28.8,-7.47 -43.8,-10.71 -55.2,-11.41 -95.6,-18.36 -121.1,-20.84 4.8,6.28 9.5,11.42 14,15.42"
         style="fill:#ed1c24;fill-opacity:1;fill-rule:nonzero;stroke:none"
         transform="matrix(0.13333333,0,0,-0.13333333,0,628.96)" />
      <path
         id="path4"
         d="m 12044.6,4578.75 c -7.3,-20.18 -17.9,-40.65 -31.7,-61.38 -13.8,-20.75 -29.8,-39.51 -48.1,-56.24 -19,-17.33 -37.1,-30.94 -54.1,-40.83 -17,-9.9 -30.1,-14.84 -39.2,-14.84 -16,0 -24,11.89 -24,35.67 0,16.57 5,36.69 15.1,60.39 10.1,23.7 25,48.19 44.8,73.51 12.2,15.23 23.9,27.89 35,37.97 11.1,10.09 21,17.89 29.6,23.42 8.5,5.51 18.4,11.13 29.6,16.84 l -10,-20.84 c 10.1,9.14 18.4,15.89 24.7,20.26 6.4,4.39 12.5,6.58 18.2,6.58 6.1,0 11.1,-2.53 15.1,-7.56 4,-5.06 6,-12.15 6,-21.28 0,-14.28 -3.7,-31.5 -11,-51.67 z m 38.4,49.96 c 0,17.7 -2,31.06 -6.1,40.11 -4.1,9.04 -10.6,15.56 -19.6,19.56 -1.3,12.94 -8.2,20.74 -20.5,23.41 -19.1,4.18 -41.9,-0.68 -68.4,-14.56 -26.6,-13.9 -52.1,-33.7 -76.5,-59.39 -24.5,-25.69 -44.7,-54.48 -60.6,-86.36 -15.8,-31.88 -23.8,-62.28 -23.8,-91.21 0,-20.75 3.6,-38.88 10.9,-54.39 7.2,-15.52 16.9,-27.46 29.1,-35.83 12.2,-8.38 25.2,-12.56 39.1,-12.56 17.9,0 40.8,9.9 68.8,29.69 24.9,17.71 47,40.16 66.4,67.37 19.3,27.23 34.3,56.34 45.1,87.37 10.7,31.02 16.1,59.96 16.1,86.79"
         style="fill:#ed1c24;fill-opacity:1;fill-rule:nonzero;stroke:none"
         transform="matrix(0.13333333,0,0,-0.13333333,0,628.96)" />
      <path
         id="path5"
         d="m 12276.6,4445.14 c 0,4.75 -2.4,7.13 -7.2,7.13 -2.8,0 -11.4,-1.95 -25.5,-5.85 -14.2,-3.91 -28.8,-7.47 -43.9,-10.71 -55.2,-11.41 -95.5,-18.36 -121,-20.84 4.7,6.28 9.4,11.42 14,15.42 4.6,3.99 9.8,7.85 15.7,11.57 5.9,3.7 9.8,6.22 11.7,7.56 20.5,13.89 49.3,32.4 86.4,55.53 37,23.12 62.9,40.2 77.7,51.24 14.9,11.04 26.5,23.13 34.9,36.26 8.4,13.13 12.5,28.74 12.5,46.82 0,14.85 -1.9,28.08 -5.7,39.69 -4,12.56 -6.8,20.88 -8.5,24.98 -1.8,4.08 -4.6,7.33 -8.7,9.7 -4.1,2.38 -10.5,3.57 -19,3.57 -17,0 -35.7,-1.95 -56.1,-5.85 -20.5,-3.91 -38.9,-8.66 -55.4,-14.27 -16.5,-5.63 -28.6,-11.2 -36.4,-16.71 -6.7,-4.76 -13,-12.8 -19,-24.12 -6,-11.33 -10.8,-23.56 -14.3,-36.69 -3.5,-13.13 -5.3,-23.89 -5.3,-32.26 0,-9.33 3.8,-13.99 11.2,-13.99 1.5,0 9.7,1.66 24.5,5 14.9,3.32 25.5,5.56 32,6.71 4.4,0.75 8.2,1.38 11.4,1.85 3.3,0.47 5.6,1.14 7,2 1.5,0.85 2.2,2.42 2.2,4.71 0,5.14 -4.3,8.56 -12.9,10.28 -8.5,1.71 -22.8,3.04 -42.8,3.99 12.7,11.05 28,20.8 45.8,29.27 17.8,8.47 35.4,14.94 52.8,19.41 17.4,4.47 32.3,6.71 44.7,6.71 7.8,0 13.9,-1.47 18.1,-4.43 4.3,-2.94 6.5,-7.08 6.5,-12.41 0,-5.91 -4,-13.71 -11.9,-23.41 -7.9,-9.71 -18.8,-19.33 -32.7,-28.84 -3.8,-2.66 -36.7,-21.7 -98.8,-57.09 -20.3,-11.81 -39,-25.27 -55.9,-40.41 -16.9,-15.12 -30.3,-29.88 -40,-44.25 -9.7,-14.37 -14.5,-26.5 -14.5,-36.4 0,-5.71 2,-14.55 6.2,-26.55 4.2,-11.99 8.2,-19.69 12,-23.12 6.3,-5.9 18.8,-8.85 37.4,-8.85 72,0 120.5,11.71 145.6,35.12 5.2,4.75 9.6,10.41 13.4,16.98 3.9,6.56 6.8,13.04 8.8,19.41 2,6.38 3,11.76 3,16.14"
         style="fill:#ed1c24;fill-opacity:1;fill-rule:nonzero;stroke:none"
         transform="matrix(0.13333333,0,0,-0.13333333,0,628.96)" />
      <path
         id="path6"
         d="m 12508.1,4700.08 c -17.5,0 -42.7,0.76 -75.4,2.29 -53.7,-50.06 -86.2,-95.65 -97.6,-136.76 0.2,-3.24 1,-7.28 2.4,-12.13 1.4,-4.85 3.2,-9.52 5.4,-13.99 2.2,-4.48 4.4,-8.99 6.7,-13.56 2.3,-5.53 6.6,-8.28 12.9,-8.28 3.2,0 11.5,1.86 24.8,5.56 13.3,3.72 25.3,6.67 35.9,8.86 10.5,2.19 22.3,3.29 35.2,3.29 13.3,0 23.6,-2.2 30.7,-6.57 7.1,-4.39 10.7,-10.38 10.7,-17.99 0,-10.09 -8.6,-23.13 -25.8,-39.12 -17.3,-15.98 -38.6,-29.82 -64,-41.54 -25.4,-11.7 -49.8,-17.55 -73.2,-17.55 -16,0 -24,2.47 -24,7.42 0,5.14 12.1,12.18 36.3,21.12 0.1,0 1,0.39 2.4,1.14 1.4,0.77 2.1,1.53 2.1,2.29 0,1.53 -1.1,2.29 -3.4,2.29 -21.3,0 -41.8,-6.39 -61.4,-19.13 -8,-5.14 -13.7,-10.61 -17.1,-16.42 -3.4,-5.8 -5.2,-13.18 -5.2,-22.12 0,-15.61 4,-26.37 11.9,-32.26 7.9,-5.9 21.3,-8.86 40.1,-8.86 32.9,0 65.2,6.81 96.9,20.42 31.7,13.6 57.8,32.79 78.3,57.53 20.4,24.73 30.6,52.81 30.6,84.22 0,24.74 -6.4,43.68 -19.2,56.81 -12.9,13.14 -30.8,19.7 -53.8,19.7 -17.7,0 -44.4,-6.1 -80,-18.27 13,27.21 30.1,49.86 51.4,67.95 12.8,-0.39 34,-0.57 63.7,-0.57 32.2,0 50.7,0.75 55.7,2.28 3,1.33 8.3,7.85 15.8,19.55 7.5,11.71 15.5,26.42 23.8,44.12 -23.4,-1.15 -47.9,-1.72 -73.6,-1.72"
         style="fill:#ed1c24;fill-opacity:1;fill-rule:nonzero;stroke:none"
         transform="matrix(0.13333333,0,0,-0.13333333,0,628.96)" />
      <path
         id="path7"
         d="m 500.191,2324.74 c 73.266,-71.12 165.414,-107.18 273.895,-107.18 79.855,0 156.602,18.24 228.124,54.21 50.65,25.48 98.67,61.41 142.74,106.82 7.17,7.42 15.1,5.15 17.36,4.26 4.79,-1.85 9.6,-6.71 8.76,-14.74 l -7.01,-66.66 c -2.11,-20.12 12.53,-36.48 32.64,-36.48 h 215.91 c 18.13,0 35.08,13.54 39.44,31.49 l 268.52,1105.26 c 2.55,10.46 0.5,21 -5.59,28.96 -6.09,7.94 -15.63,12.5 -26.18,12.5 H 1116 c -18.15,0 -35.11,-13.56 -39.47,-31.53 l -93.245,-385.73 v -0.01 c -2.523,-10.44 -0.465,-20.98 5.625,-28.92 6.094,-7.93 15.64,-12.49 26.17,-12.49 h 173.23 c 5.3,0 9.76,-2.54 12.22,-6.95 2.53,-4.52 2.46,-10 -0.19,-15.05 -32.29,-61.38 -68.94,-107.82 -108.93,-138.03 -46.89,-35.44 -98.707,-53.4 -154.008,-53.4 -65.765,0 -111.843,25.38 -140.871,77.59 -29.379,52.84 -38.379,135.83 -26.73,246.66 5.226,49.7 16.836,114.01 34.484,191.03 75.512,314.15 193.082,473.44 349.435,473.44 51.72,0 94.16,-13.8 126.15,-41 28.35,-24.18 45.01,-65.99 49.54,-124.28 1.34,-17.34 15.08,-29.93 32.67,-29.93 h 359.07 c 9.86,0 19.88,4.06 27.49,11.15 7.61,7.09 12.2,16.41 12.92,26.23 8.97,122.42 -2.16,237.58 -33.11,342.25 -33.37,112.81 -91.42,203.9 -172.51,270.76 -81.46,67.1 -186.13,101.12 -311.12,101.12 -138.18,0 -265.457,-39.15 -378.269,-116.37 C 754.16,4122.75 655.832,4010.18 574.309,3865.18 493.148,3720.86 427.293,3546.76 378.605,3347.84 c -22.683,-89.22 -39.55,-185.44 -50.121,-285.99 -17.242,-164.04 -11.207,-311.53 17.922,-438.37 29.254,-127.58 80.996,-228.1 153.785,-298.74"
         style="fill:#ed1c24;fill-opacity:1;fill-rule:nonzero;stroke:none"
         transform="matrix(0.13333333,0,0,-0.13333333,0,628.96)" />
      <path
         id="path8"
         d="m 3425.58,3025.92 185.37,423.14 c 19.41,45.14 41.31,97.96 65.08,157.01 3.35,8.32 10.12,11.22 15.97,11.22 0.66,0 1.31,-0.03 1.93,-0.11 6.21,-0.69 12.71,-4.85 12.36,-14.44 -2.1,-58.84 -4.33,-109.64 -6.61,-151.03 l -21.32,-429.86 c -0.22,-4.34 -2.17,-8.47 -5.48,-11.63 -3.32,-3.15 -7.54,-4.89 -11.88,-4.89 h -222.74 c -5.09,0 -9.47,2.37 -12.02,6.49 -2.53,4.13 -2.77,9.27 -0.66,14.1 z m -1223.4,379.24 84.07,349.46 c 1.85,7.72 9.12,13.54 16.91,13.54 h 138.57 c 40.27,0 68.96,-10.14 85.26,-30.11 16.5,-20.22 22.25,-55.37 17.08,-104.49 -8.34,-79.37 -28.63,-141.31 -60.32,-184.05 -31,-41.79 -69.7,-62.11 -118.29,-62.11 h -149.65 c -4.58,0 -8.57,1.91 -11.22,5.36 -2.65,3.44 -3.51,7.85 -2.41,12.4 z M 4092.06,2264.97 h 337.17 c 18.09,0 35.04,13.51 39.43,31.42 l 73.82,301.08 c 45.43,186.7 91.56,383.57 137.14,585.14 2.18,9.65 9.81,13.43 16.24,13.75 6.45,0.25 13.57,-2.7 14.69,-12.12 7.94,-67.07 17.16,-136.33 27.4,-205.76 l 97.06,-685.78 c 2.32,-16.33 15.69,-27.73 32.51,-27.73 h 364.78 c 18.11,0 35.06,13.53 39.44,31.46 l 471.55,1933.55 c 2.54,10.45 0.51,21.01 -5.58,28.98 -6.11,7.95 -15.65,12.51 -26.2,12.51 h -337.17 c -18.08,0 -35.04,-13.51 -39.42,-31.43 l -73.82,-301.01 c -56.05,-225.46 -104.87,-429.75 -145.08,-607.19 -2.22,-9.77 -9.92,-13.48 -16.38,-13.68 -6.64,-0.42 -13.82,3.05 -14.62,12.84 -8.08,97.91 -15.82,174.25 -23.01,226.89 l -91.76,685.57 c -2.21,16.49 -15.59,28.01 -32.54,28.01 h -366.44 c -18.1,0 -35.06,-13.53 -39.44,-31.47 l -445.73,-1827.71 20.2,1826.1 c 0.21,18.87 -13.9,33.08 -32.84,33.08 h -471.03 c -15.31,0 -30.11,-9.68 -36.83,-24.08 L 2691.97,2375.24 c 4.01,34.29 11.78,79.95 23.25,136.18 l 52.35,256.59 c 7.57,37.4 13.2,73.4 16.73,106.99 8.3,78.94 4.52,146.83 -11.24,201.8 -12.39,43.13 -33.52,79.89 -62.82,109.27 -3.42,3.42 -4.83,8.25 -3.87,13.25 0.54,2.8 2.32,8.01 8.21,11.49 59.06,34.96 110.82,82.94 153.81,142.6 50.9,70.66 88.8,156.94 112.63,256.18 14.03,52.45 24.32,109.3 30.59,168.98 15.43,146.77 -8.73,266.72 -71.79,356.56 0,0 0,0 0,0 -63.59,90.47 -181.04,136.34 -349.11,136.34 h -577.33 c -18.13,0 -35.09,-13.54 -39.45,-31.5 L 1504.15,2306.43 c -2.55,-10.46 -0.5,-21.01 5.59,-28.96 6.09,-7.95 15.63,-12.5 26.18,-12.5 h 357.07 c 18.15,0 35.11,13.56 39.47,31.53 l 146.22,604.74 c 1.86,7.72 9.15,13.53 16.93,13.53 h 120.46 c 46.35,0 78.42,-10.16 95.33,-30.21 17.02,-20.22 22.84,-57.22 17.3,-109.96 -3.44,-32.7 -9.23,-65.01 -17.3,-96.38 l -33.95,-150.53 c -15.52,-67 -26.07,-126.55 -31.37,-177.01 -1.99,-18.88 -3.03,-36.74 -3.11,-53.09 -0.1,-18.59 14.05,-32.62 32.9,-32.62 h 372.11 419.97 c 15.79,0 30.77,10.08 37.29,25.08 l 96.91,223.52 c 2.79,6.44 9.22,10.76 16,10.76 h 422.38 c 8.29,0 14.48,-6.49 14.08,-14.77 l -10.33,-210.15 c -0.95,-19.32 13.46,-34.44 32.8,-34.44 h 367.31"
         style="fill:#ed1c24;fill-opacity:1;fill-rule:nonzero;stroke:none"
         transform="matrix(0.13333333,0,0,-0.13333333,0,628.96)" />
      <path
         id="path9"
         d="m 6388.8,3250.18 c -26.9,-108.35 -57.5,-195.69 -90.94,-259.61 -32.85,-62.86 -72.72,-109.14 -118.49,-137.58 -45.74,-28.46 -102.65,-42.88 -169.14,-42.88 h -97.01 c -4.59,0 -8.58,1.9 -11.23,5.36 -2.66,3.46 -3.5,7.87 -2.41,12.42 l 214.57,884.93 c 1.86,7.7 9.14,13.5 16.92,13.5 h 62.48 c 84.65,0 146.77,-25.06 184.64,-74.5 38.16,-49.88 51.64,-131.09 40.05,-241.37 -5.58,-53.02 -15.47,-106.9 -29.44,-160.27 z M 5347.53,2277.47 c 6.09,-7.95 15.63,-12.5 26.18,-12.5 h 591.91 c 222.23,0 402.96,74.49 537.16,221.39 133.19,145.83 234.68,355.83 301.69,624.25 33.97,139.39 56.53,260.92 67.07,361.2 27.68,263.39 -7.49,464.54 -104.54,597.89 -97.48,133.89 -255.9,201.77 -470.84,201.77 h -445 c -18.12,0 -35.08,-13.54 -39.44,-31.5 L 5341.93,2306.43 c -2.54,-10.46 -0.5,-21.01 5.6,-28.96"
         style="fill:#ed1c24;fill-opacity:1;fill-rule:nonzero;stroke:none"
         transform="matrix(0.13333333,0,0,-0.13333333,0,628.96)" />
      <path
         id="path10"
         d="m 7686.04,3405.25 84.03,349.3 c 1.86,7.76 9.17,13.61 17,13.61 h 138.5 c 40.27,0 68.96,-10.14 85.26,-30.11 16.5,-20.22 22.25,-55.37 17.08,-104.49 -8.34,-79.37 -28.63,-141.31 -60.32,-184.05 -31,-41.79 -69.7,-62.11 -118.29,-62.11 h -149.55 c -4.61,0 -8.62,1.92 -11.28,5.39 -2.66,3.47 -3.53,7.89 -2.43,12.46 z M 7019.86,2264.97 h 356.9 c 18.19,0 35.19,13.59 39.56,31.6 l 146.19,604.6 c 1.87,7.76 9.19,13.6 17.01,13.6 h 120.39 c 46.35,0 78.42,-10.16 95.33,-30.21 17.02,-20.22 22.84,-57.22 17.3,-109.96 -3.44,-32.7 -9.23,-65.01 -17.3,-96.38 l -33.95,-150.53 c -15.52,-67 -26.07,-126.55 -31.37,-177.01 -1.98,-18.82 -3.03,-36.65 -3.11,-53.02 -0.09,-18.63 14.08,-32.69 32.97,-32.69 h 371.95 c 10.61,0 21.18,4.57 29.01,12.56 7.67,7.83 11.89,18.19 11.59,28.41 -0.57,19.16 0.31,39.85 2.58,61.49 3.68,35.01 11.8,83.46 24.15,143.99 l 52.35,256.59 c 7.57,37.4 13.21,73.4 16.74,106.99 8.29,78.94 4.51,146.83 -11.24,201.8 -12.39,43.1 -33.51,79.84 -62.77,109.19 -3.43,3.45 -4.84,8.3 -3.88,13.33 0.92,4.78 3.93,9 8.26,11.55 59.02,34.94 110.73,82.9 153.71,142.54 50.9,70.66 88.8,156.94 112.63,256.18 14.03,52.45 24.32,109.3 30.59,168.98 15.43,146.77 -8.73,266.72 -71.79,356.56 0,0 0,0 0,0 -63.59,90.47 -181.04,136.34 -349.11,136.34 h -577.26 c -18.17,0 -35.17,-13.57 -39.53,-31.57 L 6988.02,2306.52 c -2.55,-10.47 -0.51,-21.04 5.59,-29.01 6.11,-7.98 15.68,-12.54 26.25,-12.54"
         style="fill:#ed1c24;fill-opacity:1;fill-rule:nonzero;stroke:none"
         transform="matrix(0.13333333,0,0,-0.13333333,0,628.96)" />
      <path
         id="path11"
         d="m 11140.8,2814.26 c -6.1,7.99 -15.7,12.58 -26.3,12.58 H 10524 c -4.6,0 -8.7,1.94 -11.3,5.44 -2.7,3.5 -3.5,7.96 -2.4,12.56 l 33.8,134.55 c 1.9,7.68 9.2,13.47 16.9,13.47 h 554.7 c 18.2,0 35.2,13.55 39.5,31.52 l 114.6,469.24 c 2.6,10.48 0.5,21.05 -5.6,29.04 -6.1,7.98 -15.7,12.55 -26.2,12.55 h -540 c -4.6,0 -8.6,1.93 -11.3,5.4 -2.7,3.48 -3.5,7.93 -2.4,12.51 l 34.9,142.92 c 1.9,7.73 9.2,13.56 17,13.56 h 601.7 c 18.2,0 35.1,13.53 39.5,31.47 l 120.2,488.74 c 2.6,10.49 0.6,21.08 -5.6,29.07 -6.1,8 -15.6,12.59 -26.2,12.59 h -1053.2 -9.8 -353.2 c -15.9,0 -30.9,-10.17 -37.4,-25.3 l -306.81,-715.34 c -66.43,-153.32 -141.06,-330.26 -221.82,-525.91 -3.87,-9.36 -11.94,-11.84 -18.26,-10.99 -6.25,0.82 -12.71,5.18 -12.08,14.92 9.17,141 19.02,315.72 29.25,519.3 l 35.95,708.73 c 0.99,19.4 -13.44,34.59 -32.86,34.59 h -418.6 -44.96 -311.96 c -18.15,0 -35.14,-13.56 -39.53,-31.54 l -471.5,-1933.38 c -2.57,-10.47 -0.52,-21.05 5.58,-29.03 6.11,-7.98 15.67,-12.55 26.25,-12.55 h 356.92 c 18.15,0 35.14,13.56 39.53,31.53 l 453.86,1861.05 -44.34,-1858.98 c -0.45,-18.84 14.01,-33.6 32.92,-33.6 h 457.67 c 15.53,0 30.44,9.85 37.1,24.52 l 821.79,1810.58 -437.42,-1793.52 c -2.57,-10.47 -0.53,-21.05 5.57,-29.03 6.11,-7.98 15.68,-12.55 26.26,-12.55 h 1005.99 c 18.1,0 35.1,13.53 39.5,31.46 l 120.1,488.76 c 2.6,10.48 0.6,21.07 -5.5,29.07"
         style="fill:#ed1c24;fill-opacity:1;fill-rule:nonzero;stroke:none"
         transform="matrix(0.13333333,0,0,-0.13333333,0,628.96)" />
      <path
         id="path12"
         d="m 12110.9,3633.56 c -8.4,-79.37 -28.6,-141.31 -60.3,-184.05 -31,-41.79 -69.7,-62.11 -118.3,-62.11 h -149.6 c -4.6,0 -8.6,1.92 -11.3,5.39 -2.6,3.47 -3.5,7.89 -2.4,12.46 l 84,349.3 c 1.9,7.76 9.2,13.61 17.1,13.61 h 138.5 c 40.2,0 68.9,-10.14 85.2,-30.11 16.5,-20.22 22.3,-55.37 17.1,-104.49 z m 395.7,501.57 c 0,0 0,0 0,0 -63.6,90.47 -181,136.34 -349.1,136.34 h -577.2 c -18.2,0 -35.2,-13.57 -39.6,-31.57 L 11071,2306.52 c -2.5,-10.47 -0.5,-21.04 5.6,-29.01 6.1,-7.98 15.7,-12.54 26.2,-12.54 h 356.9 c 18.2,0 35.2,13.59 39.6,31.6 l 146.2,604.6 c 1.9,7.76 9.2,13.6 17,13.6 h 120.4 c 46.3,0 78.4,-10.16 95.3,-30.21 17,-20.22 22.9,-57.22 17.3,-109.96 -3.4,-32.7 -9.2,-65.01 -17.3,-96.38 l -33.9,-150.53 c -15.5,-67 -26.1,-126.55 -31.4,-177.01 -2,-18.82 -3,-36.65 -3.1,-53.02 -0.1,-18.63 14.1,-32.69 33,-32.69 h 371.9 c 10.6,0 21.2,4.57 29,12.56 7.7,7.83 11.9,18.19 11.6,28.41 -0.6,19.16 0.3,39.85 2.6,61.49 3.7,35.01 11.8,83.46 24.1,143.99 l 52.4,256.59 c 7.6,37.4 13.2,73.4 16.7,106.99 8.3,78.94 4.5,146.83 -11.2,201.8 -12.4,43.1 -33.5,79.84 -62.8,109.19 -3.4,3.45 -4.8,8.3 -3.9,13.33 1,4.78 4,9 8.3,11.55 59,34.94 110.7,82.9 153.7,142.54 50.9,70.66 88.8,156.94 112.6,256.18 14.1,52.45 24.4,109.3 30.6,168.98 15.5,146.77 -8.7,266.72 -71.8,356.56"
         style="fill:#ed1c24;fill-opacity:1;fill-rule:nonzero;stroke:none"
         transform="matrix(0.13333333,0,0,-0.13333333,0,628.96)" />
      <path
         id="path13"
         d="m 1221.78,755.039 c 14.99,142.582 -2,261.741 -50.49,354.171 -48.83,92.92 -131.73,156.37 -246.349,188.55 l -184.824,52.97 c -30.722,8.69 -52.617,21.65 -65.082,38.54 -12.262,16.53 -16.937,39.59 -13.894,68.56 4.781,45.48 19.195,80.7 42.843,104.67 23.27,23.57 63.375,35.52 119.192,35.52 53.355,0 91.047,-13.81 112.019,-41.06 18.067,-23.53 26.422,-58.04 24.817,-102.55 -0.715,-19.56 13.91,-34.88 33.301,-34.88 h 331.567 c 19.73,0 37.63,15.47 40.74,35.22 4.46,28.26 7.31,48.43 8.7,61.65 19.73,187.74 -11.35,333.2 -92.38,432.35 -81.24,99.39 -207.52,149.78 -375.335,149.78 -193.136,0 -343.714,-52.77 -447.562,-156.87 -103.121,-103.37 -176.316,-243.17 -217.563,-415.59 -13.347,-57.78 -22.894,-113.58 -28.386,-165.84 -15.184,-144.48 1.078,-264.54 48.328,-356.88 47.582,-92.959 120.906,-154.53 217.984,-183.049 l 146.367,-41.91 c 56.957,-14.411 96.563,-32.379 117.711,-53.379 20.543,-20.473 28.672,-48.051 24.86,-84.313 -1.489,-14.168 -3.184,-24.879 -5.055,-31.949 -9.566,-37.77 -26.816,-64.961 -51.293,-80.82 -25.152,-16.34 -66.105,-24.629 -121.711,-24.629 -55.957,0 -96.922,15.301 -121.746,45.488 -21.832,26.492 -30.488,69.281 -25.703,127.172 1.691,20.469 -12.887,36.508 -33.191,36.508 H 58.5039 c -19.3164,0 -37.168,-15.168 -40.6367,-34.539 C 12.4492,647.781 8.21875,618.359 5.28906,590.5 -6.92969,474.25 2.04688,371.012 31.957,283.66 62.0977,195.57 116.887,125.961 194.793,76.7617 272.492,27.6719 375.051,2.78906 499.605,2.78906 c 185.579,0 337.04,48.80074 450.196,145.04294 112.919,96.027 194.049,242.609 241.119,435.488 14.21,54.301 24.59,112.071 30.86,171.719"
         style="fill:#ed1c24;fill-opacity:1;fill-rule:nonzero;stroke:none"
         transform="matrix(0.13333333,0,0,-0.13333333,0,628.96)" />
      <path
         id="path14"
         d="m 2766.97,2041.17 c -6.2,8.1 -15.9,12.74 -26.64,12.74 h -355.84 c -18.42,0 -35.66,-13.77 -40.09,-32.03 l -161.45,-665.09 c -1.95,-8.01 -9.5,-14.04 -17.58,-14.04 h -317.8 c -4.78,0 -8.91,1.98 -11.67,5.57 -2.75,3.59 -3.64,8.17 -2.5,12.89 l 157.93,650.55 c 2.58,10.62 0.51,21.34 -5.69,29.43 -6.19,8.08 -15.89,12.72 -26.62,12.72 h -355.89 c -18.41,0 -35.64,-13.76 -40.09,-31.99 L 1091.79,89.5898 c -2.59,-10.6289 -0.53,-21.3593 5.67,-29.4492 6.19,-8.0898 15.9,-12.7304 26.63,-12.7304 h 355.84 c 18.42,0 35.67,13.75 40.1,32 l 167.41,687.4488 c 1.95,7.993 9.5,14.012 17.57,14.012 h 317.8 c 4.76,0 8.9,-1.98 11.66,-5.57 2.75,-3.59 3.63,-8.18 2.49,-12.91 L 1873.12,89.5703 c -2.59,-10.6211 -0.51,-21.3515 5.67,-29.4414 6.2,-8.0781 15.9,-12.7187 26.62,-12.7187 h 355.88 c 18.41,0 35.65,13.75 40.1,31.9804 L 2772.63,2011.72 c 2.59,10.63 0.54,21.36 -5.66,29.45"
         style="fill:#ed1c24;fill-opacity:1;fill-rule:nonzero;stroke:none"
         transform="matrix(0.13333333,0,0,-0.13333333,0,628.96)" />
      <path
         id="path15"
         d="m 3500.82,1024.16 c -38.19,-159.422 -86.52,-279.031 -143.67,-355.519 -56.52,-75.59 -120.07,-112.352 -194.3,-112.352 -64.73,0 -112.51,26.852 -146.05,82.102 -33.78,55.519 -44.61,143.558 -32.2,261.668 5.41,51.41 16.72,112.861 33.6,182.591 39.16,157.58 87.32,275.35 143.11,350.04 55.08,73.71 117.35,109.54 190.37,109.54 64.7,0 112.72,-27.3 146.81,-83.47 34.28,-56.49 45.38,-145 32.97,-263.08 -5.78,-54.91 -16.07,-112.59 -30.64,-171.52 z m 1343.33,0 c -38.19,-159.422 -86.53,-279.031 -143.67,-355.519 -56.52,-75.59 -120.08,-112.352 -194.31,-112.352 -64.72,0 -112.5,26.852 -146.04,82.102 -33.79,55.519 -44.62,143.558 -32.2,261.668 5.4,51.41 16.71,112.861 33.59,182.591 39.17,157.58 87.32,275.35 143.12,350.04 55.08,73.71 117.35,109.54 190.37,109.54 64.7,0 112.72,-27.3 146.8,-83.47 34.29,-56.49 45.38,-145 32.97,-263.08 -5.77,-54.91 -16.06,-112.59 -30.63,-171.52 z m 2318.65,0 c -38.19,-159.422 -86.53,-279.031 -143.67,-355.519 -56.52,-75.59 -120.08,-112.352 -194.31,-112.352 -64.73,0 -112.5,26.852 -146.04,82.102 -33.79,55.519 -44.62,143.558 -32.2,261.668 5.4,51.41 16.71,112.861 33.59,182.591 39.17,157.58 87.32,275.35 143.12,350.04 55.08,73.71 117.35,109.54 190.37,109.54 64.69,0 112.72,-27.3 146.8,-83.47 34.29,-56.49 45.38,-145 32.97,-263.08 -5.77,-54.91 -16.07,-112.59 -30.63,-171.52 z m 481.29,207.77 c 18.62,177.09 9.11,332.72 -28.24,462.58 -37.53,130.4 -99.76,231.4 -184.95,300.17 -85.46,68.91 -190.31,103.85 -311.64,103.85 -138.18,0 -266.04,-39.14 -380.03,-116.34 -105.64,-71.57 -198.76,-173.12 -277.16,-302.07 l 81.27,331.56 c 2.61,10.63 0.54,21.37 -5.64,29.48 -6.2,8.1 -15.92,12.75 -26.65,12.75 H 5440.93 c -18.39,0 -35.62,-13.74 -40.08,-31.94 l -91.71,-374.16 c -3.61,15.91 -7.57,31.49 -11.94,46.7 -37.52,130.4 -99.76,231.4 -184.94,300.17 -85.47,68.91 -190.31,103.85 -311.64,103.85 -138.19,0 -266.05,-39.14 -380.03,-116.34 -113.62,-76.98 -212.78,-188.57 -294.7,-331.7 -52.05,-90.94 -97.42,-193.63 -135.72,-306.75 5.06,131.35 -7.02,249.01 -36.3,350.77 -37.52,130.4 -99.75,231.4 -184.94,300.17 -85.46,68.91 -190.31,103.85 -311.64,103.85 -138.18,0 -266.05,-39.14 -380.03,-116.34 -113.62,-76.98 -212.77,-188.57 -294.69,-331.7 -81.61,-142.56 -146.87,-313.86 -194,-509.24 -24.02,-102.06 -40.67,-196.34 -49.48,-280.238 -18.43,-175.301 -9.4,-329.512 26.85,-458.321 36.4,-129.55 97.44,-230.082 181.42,-298.8 C 2831.59,34.9688 2935.86,0 3057.25,0 c 209.04,0 390.71,83.4219 539.98,247.922 113.53,125.109 206.38,295.058 277.32,506.558 -5.56,-131.75 6.01,-249.769 34.71,-351.789 36.41,-129.55 97.45,-230.082 181.43,-298.8 C 4174.92,34.9688 4279.19,0 4400.58,0 c 209.03,0 390.71,83.4219 539.97,247.922 148.26,163.379 261.4,402.957 336.29,712.098 23.64,98.58 40,190.06 48.61,271.91 9.64,91.76 11.67,177.69 6.25,257.33 h 277.07 c 4.77,0 8.92,-1.99 11.67,-5.58 2.76,-3.6 3.64,-8.18 2.49,-12.91 L 5286.73,89.5703 c -2.59,-10.6211 -0.53,-21.3515 5.67,-29.4414 6.2,-8.0781 15.91,-12.7187 26.63,-12.7187 h 355.86 c 18.42,0 35.67,13.75 40.1,32 L 6054.75,1475.24 c 1.95,7.99 9.5,14.02 17.58,14.02 h 292.18 c -45.26,-105.09 -83.44,-221.46 -113.97,-348.01 -24.02,-102.06 -40.66,-196.34 -49.48,-280.238 -18.42,-175.301 -9.39,-329.512 26.85,-458.321 36.4,-129.55 97.44,-230.082 181.43,-298.8 C 6493.57,34.9688 6597.83,0 6719.22,0 c 209.04,0 390.71,83.4219 539.98,247.922 148.26,163.379 261.4,402.957 336.28,712.098 23.65,98.58 40.01,190.06 48.61,271.91"
         style="fill:#ed1c24;fill-opacity:1;fill-rule:nonzero;stroke:none"
         transform="matrix(0.13333333,0,0,-0.13333333,0,628.96)" />
      <path
         id="path16"
         d="M 10168.5,2053.91 H 8686.12 c -18.52,0 -35.77,-13.85 -40.15,-32.21 L 8365.6,842.832 c -21.52,-92.531 -54.6,-164.48 -98.3,-213.852 -43.29,-48.91 -89.94,-72.691 -142.65,-72.691 -43.97,0 -76.09,17.723 -98.22,54.191 -22.49,37.04 -30.07,92.25 -22.52,164.09 3.45,32.77 9.13,64.121 16.98,93.41 l 275.65,1143.84 c 2.55,10.61 0.47,21.33 -5.73,29.39 -6.19,8.07 -15.88,12.7 -26.6,12.7 h -359.59 c -18.4,0 -35.63,-13.75 -40.08,-31.95 L 7603.27,954.512 c -21.09,-85.563 -36.15,-170.492 -44.77,-252.453 -15.91,-151.36 -6.97,-280.829 26.57,-384.77 33.73,-104.66 89.15,-184.578 164.75,-237.5077 C 7825.41,26.8516 7917.21,0 8022.67,0 c 119.89,0 231.15,30.5898 330.67,90.9297 99.26,60.1913 186.26,148.2813 258.56,261.8123 72.01,113.039 128.03,250.727 166.51,409.258 l 175.31,727.26 h 312.49 c 4.77,0 8.91,-1.99 11.67,-5.58 2.75,-3.6 3.64,-8.18 2.49,-12.91 L 8944.17,89.5703 c -2.6,-10.6211 -0.52,-21.3515 5.67,-29.4414 6.2,-8.0781 15.91,-12.7187 26.63,-12.7187 h 355.86 c 18.42,0 35.66,13.75 40.09,32 L 9712.19,1475.24 c 1.95,7.99 9.5,14.02 17.57,14.02 h 310.74 c 18.4,0 35.6,13.73 40,31.94 l 120.3,490.48 c 2.6,10.63 0.5,21.37 -5.7,29.48 -6.2,8.1 -15.9,12.75 -26.6,12.75"
         style="fill:#ed1c24;fill-opacity:1;fill-rule:nonzero;stroke:none"
         transform="matrix(0.13333333,0,0,-0.13333333,0,628.96)" />
    </g>
  </g>
</svg>
